<svg width="30" height="30" viewBox="0 0 30 30" fill="none" xmlns="http://www.w3.org/2000/svg">
<path d="M27.5 0H2.5C1.83696 0 1.20107 0.263392 0.732233 0.732233C0.263392 1.20107 0 1.83696 0 2.5V27.5C0 28.163 0.263392 28.7989 0.732233 29.2678C1.20107 29.7366 1.83696 30 2.5 30H27.5C28.163 30 28.7989 29.7366 29.2678 29.2678C29.7366 28.7989 30 28.163 30 27.5V2.5C30 1.83696 29.7366 1.20107 29.2678 0.732233C28.7989 0.263392 28.163 0 27.5 0ZM23.3844 21.6156C23.5005 21.7318 23.5926 21.8696 23.6555 22.0214C23.7183 22.1731 23.7507 22.3358 23.7507 22.5C23.7507 22.6642 23.7183 22.8269 23.6555 22.9786C23.5926 23.1304 23.5005 23.2682 23.3844 23.3844C23.2682 23.5005 23.1304 23.5926 22.9786 23.6555C22.8269 23.7183 22.6642 23.7507 22.5 23.7507C22.3358 23.7507 22.1731 23.7183 22.0214 23.6555C21.8696 23.5926 21.7318 23.5005 21.6156 23.3844L15 16.7672L8.38438 23.3844C8.14983 23.6189 7.83171 23.7507 7.5 23.7507C7.16829 23.7507 6.85018 23.6189 6.61562 23.3844C6.38107 23.1498 6.24931 22.8317 6.2493 22.5C6.2493 22.1683 6.38107 21.8502 6.61562 21.6156L13.2328 15L6.61562 8.38438C6.38107 8.14983 6.2493 7.83171 6.2493 7.5C6.24931 7.16829 6.38107 6.85018 6.61563 6.61563C6.85018 6.38107 7.16829 6.24931 7.5 6.2493C7.83171 6.2493 8.14983 6.38107 8.38438 6.61562L15 13.2328L21.6156 6.61562C21.8502 6.38107 22.1683 6.2493 22.5 6.2493C22.8317 6.24931 23.1498 6.38107 23.3844 6.61562C23.6189 6.85018 23.7507 7.16829 23.7507 7.5C23.7507 7.83171 23.6189 8.14983 23.3844 8.38438L16.7672 15L23.3844 21.6156Z" fill="#B1E543"/>
</svg>
